<svg id="Ebene_1" data-name="Ebene 1" xmlns="http://www.w3.org/2000/svg" viewBox="0 0 38 48">
  <defs>
    <style>
      .cls-1 {
        fill: #1d1d1b;
        stroke: #010101;
        stroke-width: 2px;
      }

      .cls-1, .cls-2 {
        stroke-linecap: round;
        stroke-linejoin: round;
      }

      .cls-2 {
        fill: none;
        stroke: #fff;
      }
    </style>
  </defs>
  <title>eat_drink</title>
  <path class="cls-1" d="M34.55,28.07,19,47,3.45,28.07h0A18,18,0,1,1,37,19,17.87,17.87,0,0,1,34.55,28.07Z"/>
  <g>
    <path class="cls-2" d="M25.53,24.43c-2.09,0-3.73-2.35-3.73-5.48,0-5.21,1.64-9.44,3.73-9.44"/>
    <line class="cls-2" x1="25.53" y1="9.51" x2="25.53" y2="30.67"/>
    <path class="cls-2" d="M18.07,14.17a2.8,2.8,0,0,1-5.6,0"/>
    <line class="cls-2" x1="18.07" y1="14.17" x2="18.07" y2="9.51"/>
    <line class="cls-2" x1="12.47" y1="14.17" x2="12.47" y2="9.51"/>
    <line class="cls-2" x1="15.27" y1="9.51" x2="15.27" y2="30.67"/>
  </g>
</svg>
