<svg id="Ebene_1" data-name="Ebene 1" xmlns="http://www.w3.org/2000/svg" viewBox="0 0 38 48">
  <defs>
    <style>
      .cls-1 {
        fill: #1d1d1b;
        stroke: #010101;
        stroke-width: 2px;
      }

      .cls-1, .cls-2 {
        stroke-linecap: round;
        stroke-linejoin: round;
      }

      .cls-2 {
        fill: none;
        stroke: #fff;
      }
    </style>
  </defs>
  <title>water</title>
  <g>
    <path class="cls-1" d="M34.55,28.07,19,47,3.45,28.07h0A18,18,0,1,1,37,19,17.87,17.87,0,0,1,34.55,28.07Z"/>
    <path class="cls-2" d="M10.64,19.86a7.64,7.64,0,0,1,4.55-1.64c2.64,0,4.83,1.64,7.52,1.64a8,8,0,0,0,4.65-1.64"/>
    <path class="cls-2" d="M10.64,23.24a7.64,7.64,0,0,1,4.55-1.64c2.64,0,4.83,1.64,7.52,1.64a8,8,0,0,0,4.65-1.64"/>
  </g>
</svg>
